<?xml version="1.0" encoding="utf-8"?>
<!-- Generator: Adobe Illustrator 26.0.2, SVG Export Plug-In . SVG Version: 6.00 Build 0)  -->
<svg version="1.1" id="Layer_1" xmlns="http://www.w3.org/2000/svg" xmlns:xlink="http://www.w3.org/1999/xlink" x="0px" y="0px"
	 viewBox="0 0 800 800" style="enable-background:new 0 0 800 800;" xml:space="preserve">
<style type="text/css">
	.st0{fill-rule:evenodd;clip-rule:evenodd;fill:#010101;}
	.st1{fill-rule:evenodd;clip-rule:evenodd;fill:#EE1D52;}
	.st2{fill-rule:evenodd;clip-rule:evenodd;fill:#FFFFFF;}
	.st3{fill-rule:evenodd;clip-rule:evenodd;fill:#69C9D0;}
</style>
<path class="st0" d="M80,0h640c44.2,0,80,35.8,80,80v640c0,44.2-35.8,80-80,80H80c-44.2,0-80-35.8-80-80V80C0,35.8,35.8,0,80,0z"/>
<ellipse class="st0" cx="-394" cy="1058.5" rx="21.4" ry="21.3"/>
<path class="st1" d="M529.6,331.6c35,25,77.9,39.7,124.3,39.7v-89.1c-8.8,0-17.5-0.9-26.1-2.7v70.2c-46.3,0-89.2-14.7-124.3-39.7
	v181.9c0,91-73.8,164.7-164.8,164.7c-34,0-65.5-10.3-91.8-27.9c29.9,30.6,71.7,49.6,117.8,49.6c91,0,164.8-73.8,164.8-164.7
	L529.6,331.6L529.6,331.6z M561.8,241.7c-17.9-19.5-29.6-44.8-32.2-72.7v-11.5h-24.7C511.1,193,532.4,223.3,561.8,241.7L561.8,241.7
	z M304.6,558.9c-10-13.1-15.4-29.1-15.4-45.6c0-41.6,33.8-75.4,75.4-75.4c7.8,0,15.5,1.2,22.9,3.5v-91.1c-8.6-1.2-17.4-1.7-26.1-1.5
	v70.9c-7.4-2.3-15.1-3.5-22.9-3.5c-41.6,0-75.4,33.7-75.4,75.4C263.1,521,280,546.5,304.6,558.9z"/>
<path class="st2" d="M503.6,309.9c35,25,77.9,39.7,124.3,39.7v-70.2c-25.9-5.5-48.8-19-66-37.8c-29.5-18.4-50.7-48.7-56.9-84.2h-65
	v356c-0.1,41.5-33.8,75.1-75.4,75.1c-24.5,0-46.2-11.7-60-29.7c-24.6-12.4-41.5-37.9-41.5-67.3c0-41.6,33.8-75.4,75.4-75.4
	c8,0,15.7,1.2,22.9,3.5v-70.9C271.9,350.7,200,423.7,200,513.5c0,44.8,17.9,85.5,47,115.2c26.2,17.6,57.8,27.9,91.8,27.9
	c91,0,164.8-73.8,164.8-164.7L503.6,309.9z"/>
<path class="st3" d="M627.8,279.5v-19c-23.3,0-46.2-6.5-66-18.8C579.4,260.9,602.4,274.1,627.8,279.5z M504.9,157.5
	c-0.6-3.4-1.1-6.8-1.4-10.2v-11.5h-89.7v356c-0.1,41.5-33.8,75.1-75.4,75.1c-12.2,0-23.7-2.9-33.9-8c13.8,18.1,35.5,29.7,60,29.7
	c41.5,0,75.2-33.6,75.4-75.1v-356H504.9z M361.4,348.8v-20.2c-7.5-1-15.1-1.5-22.6-1.5c-91,0-164.8,73.8-164.8,164.7
	c0,57,29,107.3,73.1,136.9c-29.1-29.7-47-70.3-47-115.2C200,423.7,271.9,350.7,361.4,348.8L361.4,348.8z"/>
</svg>
