<?xml version="1.0" standalone="no"?>
<!DOCTYPE svg PUBLIC "-//W3C//DTD SVG 20010904//EN"
 "http://www.w3.org/TR/2001/REC-SVG-20010904/DTD/svg10.dtd">
<svg version="1.0" xmlns="http://www.w3.org/2000/svg"
 width="896.000000pt" height="896.000000pt" viewBox="0 0 896.000000 896.000000"
 preserveAspectRatio="xMidYMid meet">
<metadata>
Created by potrace 1.14, written by Peter Selinger 2001-2017
</metadata>
<g transform="translate(0.000000,896.000000) scale(0.100000,-0.100000)"
fill="#000000" stroke="none">
<path d="M1648 8955 c-1 -1 -25 -5 -53 -9 -27 -3 -63 -9 -80 -12 -16 -3 -35
-7 -42 -8 -7 -1 -16 -5 -19 -9 -4 -4 -16 -7 -26 -7 -25 0 -145 -42 -232 -82
-283 -129 -539 -383 -673 -668 -36 -76 -95 -240 -86 -240 3 0 -1 -7 -8 -17 -8
-9 -12 -18 -10 -20 3 -3 -7 -75 -16 -113 -2 -8 -6 -40 -9 -70 -6 -66 -7 -6410
0 -6460 10 -75 17 -116 27 -155 6 -22 12 -44 14 -50 1 -5 5 -17 8 -25 3 -8 11
-33 18 -55 7 -22 19 -56 27 -75 8 -19 14 -37 14 -40 0 -3 5 -11 10 -18 6 -7
21 -35 34 -62 24 -52 110 -183 153 -234 79 -94 257 -256 280 -256 6 0 11 -4
11 -8 0 -5 19 -19 43 -32 23 -13 44 -26 47 -29 6 -7 97 -52 165 -81 51 -23
152 -55 215 -70 19 -5 46 -11 60 -15 103 -25 390 -25 530 0 159 29 355 108
520 209 40 24 66 39 147 83 71 40 116 66 123 73 3 3 18 12 35 20 25 13 122 68
175 100 8 5 92 53 185 106 94 53 182 106 198 116 15 11 27 16 27 11 0 -4 4 -3
8 2 7 10 229 141 347 205 17 9 49 28 72 43 24 15 45 27 48 27 3 0 24 11 46 26
43 26 73 44 179 104 36 20 81 46 100 58 19 12 41 25 49 28 15 8 405 234 466
271 22 13 52 29 68 36 15 6 27 15 27 19 0 4 5 8 11 8 6 0 30 13 54 30 24 16
50 30 58 30 9 0 17 4 19 8 3 8 233 146 358 215 30 17 57 33 60 36 3 4 16 12
30 18 14 7 43 24 65 38 22 14 47 28 55 32 8 4 55 31 104 60 49 29 90 53 93 53
2 0 29 16 59 35 30 19 58 35 63 35 5 0 14 7 21 15 7 9 15 13 18 10 3 -3 20 6
38 20 18 14 35 25 38 25 4 0 229 128 316 180 126 75 171 100 180 100 5 0 10 5
10 10 0 6 4 10 9 10 7 0 45 21 119 65 29 17 172 99 236 134 33 19 63 37 66 40
3 3 21 14 40 25 52 28 100 55 265 151 83 48 168 97 190 109 22 11 42 24 45 27
3 3 30 19 60 35 30 16 59 34 65 39 6 6 29 19 51 30 21 11 41 23 44 26 3 3 25
16 50 30 64 35 218 140 264 180 102 90 212 215 246 280 7 13 16 26 20 29 8 6
80 146 108 210 23 52 60 169 68 213 2 17 7 34 10 39 16 25 24 377 11 453 -4
22 -10 57 -12 79 -3 21 -14 74 -26 118 -71 281 -227 525 -449 706 -25 21 -46
40 -48 45 -2 4 -7 7 -12 7 -5 0 -35 17 -67 39 -32 21 -101 62 -153 92 -52 29
-96 57 -98 61 -2 5 -7 8 -12 8 -5 0 -54 27 -110 60 -56 33 -106 60 -111 60 -5
0 -9 5 -9 10 0 6 -4 10 -9 10 -8 0 -73 37 -161 90 -76 46 -242 140 -247 140
-3 0 -14 6 -22 14 -9 8 -40 27 -69 42 -29 16 -69 39 -90 51 -20 13 -46 27 -57
33 -11 6 -38 21 -60 35 -22 14 -56 32 -75 42 -19 9 -37 20 -40 23 -9 10 -152
90 -161 90 -5 0 -9 5 -9 10 0 6 -4 10 -10 10 -5 0 -44 20 -86 45 -41 25 -78
45 -80 45 -3 0 -28 15 -57 33 -29 18 -77 47 -107 64 -85 46 -105 58 -110 64
-3 3 -20 12 -37 20 -18 8 -33 17 -33 21 0 5 -4 8 -9 8 -5 0 -86 45 -180 100
-94 55 -175 100 -181 100 -5 0 -10 5 -10 10 0 6 -5 10 -11 10 -6 0 -48 22 -93
49 -68 42 -418 244 -591 343 -60 34 -79 45 -125 74 -19 12 -62 37 -95 55 -33
18 -93 52 -133 76 -41 24 -78 43 -83 43 -5 0 -9 5 -9 10 0 6 -5 10 -10 10 -6
0 -27 11 -48 23 -20 13 -57 35 -82 49 -72 40 -123 69 -155 89 -16 10 -46 27
-65 37 -19 10 -60 34 -90 52 -62 37 -104 61 -170 98 -25 13 -53 32 -64 41 -10
9 -21 16 -25 15 -3 -1 -15 4 -26 11 -52 33 -247 145 -251 145 -3 0 -33 18 -68
40 -35 22 -68 40 -75 40 -6 0 -11 5 -11 10 0 6 -4 10 -10 10 -8 0 -319 178
-400 228 -14 9 -26 14 -26 11 -1 -2 -10 3 -20 12 -11 9 -39 27 -64 40 -25 13
-47 26 -50 29 -3 3 -25 16 -50 29 -25 13 -50 28 -56 32 -40 31 -277 136 -321
143 -7 1 -16 5 -19 9 -4 4 -18 7 -31 7 -14 0 -32 4 -42 9 -9 5 -37 12 -61 15
-25 3 -56 8 -70 12 -26 6 -326 15 -332 9z"/>
</g>
</svg>
