<svg id="Layer_1" data-name="Layer 1" xmlns="http://www.w3.org/2000/svg"
    xmlns:xlink="http://www.w3.org/1999/xlink" viewBox="0 0 603.85 116">
    <defs>
        <style>
            .cls-1{fill:none;}.cls-2{clip-path:url(#clip-path);}.cls-3{fill:url(#linear-gradient);}.cls-4{fill:#010101;}</style>
        <clipPath id="clip-path">
            <path class="cls-1"
                d="M292.93,17.31c.06,12.9,0,25.79,0,38.69V94.94a15.09,15.09,0,0,0,.28,3,17.56,17.56,0,0,0,25.61,12c1.4-.76,2.77-1.56,4.15-2.36l22.87-13.24c6.84-4,13.65-8,20.49-11.94C372.87,78.64,379.5,74.91,386,71a17.07,17.07,0,0,0,8.21-17.5,16.63,16.63,0,0,0-8.48-12.6c-8.75-5.12-17.54-10.17-26.32-15.25L319.59,2.58A18.21,18.21,0,0,0,310.3,0h-.06a17.55,17.55,0,0,0-17.31,17.31" />
        </clipPath>
        <linearGradient id="linear-gradient" x1="-116.04" y1="-219.93" x2="-115.03" y2="-219.93"
            gradientTransform="matrix(101.87, 0, 0, -101.87, 12113.2, -22346.69)"
            gradientUnits="userSpaceOnUse">
            <stop offset="0" stop-color="#6ccad4" />
            <stop offset="0.08" stop-color="#6ccad4" />
            <stop offset="0.25" stop-color="#8ca6b6" />
            <stop offset="0.56" stop-color="#c06a83" />
            <stop offset="0.78" stop-color="#e14464" />
            <stop offset="0.9" stop-color="#ee3658" />
            <stop offset="1" stop-color="#ee3658" />
        </linearGradient>
    </defs>
    <g class="cls-2">
        <path class="cls-3" d="M293,0H396V116H293Z" />
    </g>
    <path class="cls-4"
        d="M595.41,15.45C587.25,7,577.66,6.43,566.63,6H509V107h32V74h24.49c11-.29,20.33-.72,28.77-9.45,7.87-8.16,9.59-17.32,9.59-25.76,0-6.44-1-15.75-8.44-23.62M564.83,52.28a21.88,21.88,0,0,1-5.34.72H541V27h18.2c4,.29,13.43.87,13.43,12.86,0,6.21-2.89,10.83-7.8,12.42M405,66.12c.29,10.59.43,21.9,10.43,31.63,7.43,7.16,20.28,12,35.14,12,15.57,0,27.29-5.16,34.57-12C497,86.44,497,71.41,497,59.82V6H465V69.12c0,4.3-.14,8.74-3.88,12.31A14.67,14.67,0,0,1,450.93,85c-3.73,0-7.61-1-10.2-3.72-3.59-3.43-3.73-7.87-3.73-12.17V6H405ZM199,31h25v76h32V31h26V6H199Zm-91,76h84V85H140V65h45V43H140V28h48V6H108ZM0,87.91c4.58,5.58,12,14.6,28.06,19.18a84.14,84.14,0,0,0,23.47,3c5.58,0,25.91,0,38.65-13a32,32,0,0,0,9-22.76c0-25-22.33-29.06-44.81-32.92-8.73-1.58-13.88-2.87-13.88-7.73,0-5.16,6-6.59,11.45-6.59,5.15,0,12.88.86,18.75,3.72a20.53,20.53,0,0,1,7.73,6.59l20-16.75C94.9,16.91,91.18,12.9,83.6,9.18,75.29,5,64.7,2.74,53.11,2.74c-18.18,0-35.22,5.87-41.8,20.75a31.53,31.53,0,0,0-2.87,13C8.44,57.85,26.62,63.57,35.93,66c4.15,1,22.76,4.29,26.34,5.58,5.58,1.86,5.58,5.58,5.58,6.3,0,7.3-12.6,7.58-15.17,7.58a45.16,45.16,0,0,1-14.17-2.29c-8.74-2.86-11.17-6.58-14-11Z" />
</svg>
