<svg xmlns="http://www.w3.org/2000/svg" viewBox="0 0 603.22 154"><defs><linearGradient id="linear-gradient" y1="595.3" x2="1.01" y2="595.3" gradientTransform="translate(292.42 -60519.47) scale(101.76)" gradientUnits="userSpaceOnUse"><stop offset="0" stop-color="#25f4ee"/><stop offset=".08" stop-color="#25f4ee"/><stop offset=".15" stop-color="#3ae0df"/><stop offset=".43" stop-color="#8d94a4"/><stop offset=".65" stop-color="#ca5c7a"/><stop offset=".82" stop-color="#f0395f"/><stop offset=".9" stop-color="#fe2c55"/><stop offset="1" stop-color="#fe2c55"/></linearGradient><clipPath id="clip-path" transform="translate(-119.33 -216.28)"><path d="M411.9 233.59c.06 12.89 0 25.79 0 38.69h-.05v38.3a20 20 0 0 0 .07 2.45 17.59 17.59 0 0 0 25.83 13.26c1.39-.76 2.76-1.57 4.14-2.36q11.44-6.62 22.87-13.24c6.84-4 13.66-8 20.5-11.95 6.57-3.82 13.2-7.56 19.72-11.46a17.05 17.05 0 0 0 8.21-17.5 16.61 16.61 0 0 0-8.47-12.6c-8.75-5.12-17.55-10.17-26.32-15.25l-39.8-23.07a18.27 18.27 0 0 0-9.32-2.58h-.06c-9 0-17.36 7.61-17.32 17.31" style="fill:none"/></clipPath><style>.cls-2{fill:#fff}</style></defs><path class="cls-2" d="M276.41 134h-4.14l-3.6 7.51-3.59-7.51h-4.17l5.76 11.41V153h4v-7.59Zm-16.37 19-4.47-8.47a4.82 4.82 0 0 0 3.73-4.92c0-3.11-1.9-5.61-6.52-5.61h-8.11v19h4v-7h3.78l3.9 7Zm-5-12.52c0 1.69-.85 2.52-3.7 2.52h-2.67v-5h3.32c2 0 3.07.82 3.07 2.48m-12.26 3.47c0-6.33-3-9.94-8.7-9.94s-8.67 3.61-8.67 9.94 3 9.94 8.67 9.94 8.7-3.61 8.7-9.94m-4 0c0 4.55-1.48 6.85-4.73 6.85s-4.73-2.3-4.73-6.85 1.52-6.81 4.73-6.81 4.73 2.29 4.73 6.81m-14.16-6v-4h-14.97v4h6v16h4v-16Zm-15.8 10c0-6.26-10.67-5.58-10.67-8.91 0-1.48 1.24-2.13 3-2.13a3.81 3.81 0 0 1 3.7 2.52l3.59-1a7.55 7.55 0 0 0-7.29-4.39c-3.59 0-6.7 2-6.7 5.42 0 5.94 10.67 5.2 10.67 9 0 1.87-1.52 2.58-3.49 2.58-2.31 0-3.55-1.23-4.49-3l-3.28 1.32c1.18 2.84 4.35 4.58 7.74 4.58 4.59 0 7.25-2 7.25-5.94m-23.83 5-4.48-8.47a4.82 4.82 0 0 0 3.74-4.92c0-3.11-1.9-5.61-6.52-5.61h-8.11v19h4v-7h3.24l3.91 7Zm-5-12.52c0 1.69-.85 2.52-3.7 2.52h-2.67v-5h3.32c2 0 3.07.82 3.07 2.48M165.67 146v-12h-4v12.27c0 3.13-1.32 4.23-4 4.23s-4-1.1-4-4.23V134h-4v12.4c0 5.65 3.73 7.49 7.95 7.49s7.94-1.84 7.94-7.49m-18.12-2.45c0-6.33-3-9.94-8.71-9.94s-8.67 3.61-8.67 9.94 3 9.94 8.67 9.94 8.71-3.61 8.71-9.94m-4 0c0 4.55-1.49 6.85-4.74 6.85s-4.73-2.3-4.73-6.85 1.52-6.81 4.73-6.81 4.74 2.29 4.74 6.81m-14.06-10h-4.11l-3.6 7.56-3.59-7.51h-4.17l5.76 11.41V153h4v-7.59Zm-22.74 19v-2h-9.97v-6h7v-3h-7v-5h10v-3h-14v19Zm-16-15v-4H75.67v4h5v16h4v-16Zm-14.76 16-6.06-20h-5.1l-6.14 20h4.39l1.16-4h6.27l1.13 4Zm-6.3-8h-4.59l2.33-8Zm-10.94 7v-2h-9.97l-1-6h8v-3h-8v-5h10v-3h-13v19Zm-17.63 0-4.47-8.47a4.82 4.82 0 0 0 3.73-4.92c0-3.11-1.9-5.61-6.52-5.61h-8.08v19h4v-7h3.51l3.9 7Zm-5-12.52c0 1.69-.86 2.52-3.71 2.52h-2.63v-5h3.32c2 0 3.08.82 3.08 2.48m-12.26 8.35-3.66-.91c-1.17 2.29-2.28 2.88-4 2.88-3 0-4.39-2.3-4.39-6.85s1.62-6.81 4.25-6.81a3.81 3.81 0 0 1 3.77 2.77l3.59-.8c-1-3.43-3.28-5.1-7.22-5.1-5.29 0-8.33 3.61-8.33 9.94s3 9.94 8.33 9.94c3.76 0 6.46-1.71 7.7-5.06"/><g style="clip-path:url(#clip-path)"><path style="fill:url(#linear-gradient)" d="M292.67 0h103v116h-103z"/></g><path class="cls-2" d="M594.79 15.43c-8.15-8.43-17.73-9-28.74-9.43h-57.38v101h32V74h24.23c11-.29 20.31-.72 28.75-9.44 7.86-8.15 9.58-17.3 9.58-25.74 0-6.43-1-15.73-8.44-23.59m-30.29 37a22.81 22.81 0 0 1-5.34.73h-18.49v-26h18.2c4 .29 13.43.86 13.43 12.85 0 6.21-2.88 10.83-7.8 12.42M404.67 66.05c.29 10.58.43 21.88 10.43 31.6 7.43 7.15 20.28 12 35.14 12 15.57 0 27.29-5.15 34.57-12 11.86-11.29 11.86-26.31 11.86-37.93V6h-32v63c0 4.29-.14 8.73-3.88 12.3a14.68 14.68 0 0 1-10.19 3.58c-3.74 0-7.61-1-10.2-3.72-3.59-3.43-3.73-7.87-3.73-12.16V6h-32ZM198.67 31h25v76h32V31h26V6h-83v25zm-91 76h84V85h-52V65h45V43h-45V28h48V6h-80v101zM0 87.5c4.58 5.57 12 14.58 28 19.16a83.71 83.71 0 0 0 23.45 3c5.58 0 25.88 0 38.61-13a31.94 31.94 0 0 0 9-22.74c0-25-22.31-29-44.76-32.88-8.72-1.58-13.87-2.86-13.87-7.73 0-5.14 6-6.57 11.44-6.57 5.15 0 12.87.85 18.73 3.71a20.67 20.67 0 0 1 7.72 6.58l20-16.73c-3.57-3.72-7.29-7.72-14.87-11.44-8.29-4.15-18.87-6.43-30.46-6.43-18.16 0-35.17 5.86-41.75 20.73a31.38 31.38 0 0 0-2.86 13c0 21.31 18.16 27 27.45 29.46 4.15 1 22.74 4.29 26.31 5.58 5.58 1.86 5.58 5.57 5.58 6.29 0 7.29-12.58 7.58-15.16 7.58a45.12 45.12 0 0 1-14.15-2.29c-8.73-2.86-11.16-6.58-14-11Z"/></svg>
